<svg xmlns="http://www.w3.org/2000/svg" width="1280" height="360" viewBox="0 0 1280 360" role="img" aria-label="Find and GSSoC 2026">
  <defs>
    <clipPath id="frame">
      <rect x="32" y="32" width="1216" height="296" rx="30"/>
    </clipPath>
    <pattern id="grid" width="44" height="44" patternUnits="userSpaceOnUse">
      <path d="M44 0H0V44" fill="none" stroke="#f0f0f0" stroke-opacity="0.045" stroke-width="1"/>
    </pattern>
    <filter id="shadow" x="-30%" y="-30%" width="160%" height="160%">
      <feDropShadow dx="0" dy="18" stdDeviation="22" flood-color="#000000" flood-opacity="0.5"/>
    </filter>
  </defs>

  <rect width="1280" height="360" fill="#050606"/>
  <g clip-path="url(#frame)">
    <rect x="32" y="32" width="1216" height="296" rx="30" fill="#080909"/>
    <rect x="32" y="32" width="1216" height="296" rx="30" fill="url(#grid)"/>
    <path d="M712 32H1248V328H810C762 272 729 207 711 132C702 92 703 58 712 32Z" fill="#0d1010"/>
    <path d="M1002 32H1248V328H1098C1050 246 1018 147 1002 32Z" fill="#1FB6A6" opacity="0.1"/>
    <path d="M80 274H436" stroke="#11ff99" stroke-width="2" stroke-linecap="round"/>
    <path d="M844 274H1200" stroke="#1FB6A6" stroke-width="2" stroke-linecap="round" opacity="0.75"/>
  </g>
  <rect x="32.5" y="32.5" width="1215" height="295" rx="29.5" fill="none" stroke="#f0f0f0" stroke-opacity="0.13"/>

  <g transform="translate(88 96)">
    <g filter="url(#shadow)">
      <rect width="96" height="96" rx="20" fill="#111313" stroke="#f0f0f0" stroke-opacity="0.16"/>
      <svg x="20" y="20" width="56" height="56" viewBox="0 0 797 797" aria-hidden="true">
        <g transform="matrix(1,0,0,1,-101.914227,-101.596152)">
          <g transform="matrix(3.934849,0,0,3.934849,-1254.655848,-1746.345558)">
            <g transform="matrix(1.096498,0,0,1.096498,-40.759206,-57.939481)">
              <path d="M404.177,656.111L404.177,665.824L351.589,665.824L351.589,613.236L361.624,613.236L361.624,656.111L404.177,656.111Z" fill="#f0f0f0"/>
            </g>
            <g transform="matrix(0,1.096498,-1.096498,0,1074.832267,84.117668)">
              <path d="M404.177,656.111L404.177,665.824L351.589,665.824L351.589,613.236L361.624,613.236L361.624,656.111L404.177,656.111Z" fill="#f0f0f0"/>
            </g>
            <g transform="matrix(-1.096498,0,0,-1.096498,932.663845,1199.709141)">
              <path d="M404.177,656.111L404.177,665.824L351.589,665.824L351.589,613.236L361.624,613.236L361.624,656.111L404.177,656.111Z" fill="#f0f0f0"/>
            </g>
            <rect x="392.175" y="522.401" width="108.798" height="32.334" fill="#f0f0f0"/>
            <g transform="matrix(0.439252,0,0,1,219.910929,42.298903)">
              <rect x="392.175" y="522.401" width="108.798" height="32.334" fill="#f0f0f0"/>
            </g>
            <g transform="matrix(0.250243,0,0,1,294.035582,85.411246)">
              <clipPath id="logo-cut">
                <path d="M381.151,518.613L392.175,543.685C392.175,543.685 400.262,546.873 419.43,550.932C428.084,552.764 405.782,551.765 500.315,531.107C527.161,525.241 513.629,518.28 513.629,518.28L381.151,518.613Z"/>
              </clipPath>
              <g clip-path="url(#logo-cut)">
                <rect x="392.175" y="522.401" width="108.798" height="32.334" fill="#f0f0f0"/>
              </g>
            </g>
            <g transform="matrix(1,0,0,1,-1,0)">
              <rect x="487.376" y="587.925" width="25.023" height="25.023" fill="#f0f0f0"/>
            </g>
            <g transform="matrix(1,0,0,1,-1,35.158147)">
              <rect x="487.376" y="587.925" width="25.023" height="25.023" fill="#f0f0f0"/>
            </g>
            <g transform="matrix(1,0,0,1,34.158177,0)">
              <rect x="487.376" y="587.925" width="25.023" height="25.023" fill="#11ff99"/>
            </g>
            <g transform="matrix(1,0,0,1,34.158177,35.158147)">
              <rect x="487.376" y="587.925" width="25.023" height="25.023" fill="#f0f0f0"/>
            </g>
          </g>
        </g>
      </svg>
    </g>
    <text x="124" y="43" fill="#f0f0f0" font-family="Inter, Segoe UI, Arial, sans-serif" font-size="46" font-weight="800">FIND.</text>
    <text x="126" y="78" fill="#9ca3a3" font-family="Inter, Segoe UI, Arial, sans-serif" font-size="18" font-weight="500">Local-first image intelligence</text>
  </g>

  <g transform="translate(806 93)">
    <rect x="0" y="0" width="104" height="104" rx="24" fill="#f6fbfb" filter="url(#shadow)"/>
    <circle cx="52" cy="52" r="31" fill="#11ff99"/>
    <circle cx="52" cy="52" r="23" fill="#050606"/>
    <path d="M52 26C66.359 26 78 37.641 78 52C78 66.359 66.359 78 52 78" fill="none" stroke="#11ff99" stroke-width="8" stroke-linecap="round"/>
    <path d="M52 36C43.163 36 36 43.163 36 52C36 60.837 43.163 68 52 68" fill="none" stroke="#f6fbfb" stroke-width="8" stroke-linecap="round"/>
    <circle cx="64" cy="44" r="4" fill="#f6fbfb"/>
    <circle cx="40" cy="60" r="4" fill="#11ff99"/>
    <text x="132" y="45" fill="#f0f0f0" font-family="Inter, Segoe UI, Arial, sans-serif" font-size="42" font-weight="800">GSSoC '26</text>
    <text x="134" y="80" fill="#9ca3a3" font-family="Inter, Segoe UI, Arial, sans-serif" font-size="18" font-weight="500">Open source project</text>
  </g>
</svg>
